# xmcd CD database file
#
# Track frame offsets:
#	150
#	21105
#	41515
#	60275
#	85322
#	110175
#	131450
#	158272
#	178510
#	202287
#	219502
#	243395
#	268407
#	293417
#	311582
#
# Disc length: 4490 seconds
#
# Revision: 2
# Processed by: cddbd v1.4b41PL1 Copyright (c) Steve Scherf et al.
# Submitted via: Feurio! 1.50.2ß - http://www.feurio.com
#
DISCID=d211880f
DTITLE=Various Artist - Wave Music Vol. 1 [CD 1)
DYEAR=1900
DGENRE=
TTITLE0=Droff van, Michael - Pearldiver
TTITLE1=Droff van, Michael - Human Touch
TTITLE2=Droff van, Michael - The Moment You're Not There
TTITLE3=Droff van, Michael - Catalina
TTITLE4=Marlo, Clair - Wish
TTITLE5=Marlo, Clair - Too Close
TTITLE6=Marlo, Clair - Universal Love
TTITLE7=Ross, Ken - Gemini Rising
TTITLE8=Ross, Ken - After Hours
TTITLE9=Ross, Ken - Salsero
TTITLE10=Diva - Alien
TTITLE11=Diva - Blue Seduction
TTITLE12=Diva - Out On The Street
TTITLE13=Diva - Vanity
TTITLE14=Davis, Neil - Next To You
EXTD=
EXTT0=
EXTT1=
EXTT2=
EXTT3=
EXTT4=
EXTT5=
EXTT6=
EXTT7=
EXTT8=
EXTT9=
EXTT10=
EXTT11=
EXTT12=
EXTT13=
EXTT14=
PLAYORDER=
